HIERARCHY
ROOT Hips
{
	OFFSET 0.000000 0.000000 0.000000 
	CHANNELS 6 Xposition Yposition Zposition Yrotation Zrotation Xrotation 
	JOINT Lumbar
	{
		OFFSET 0.000000 0.000000 0.000000 
		CHANNELS 3 Zrotation Xrotation Yrotation
		JOINT Neck
		{
			OFFSET 0.000000 0.445665 0.000000 
			CHANNELS 3 Zrotation Xrotation Yrotation
			End Site
			{
				OFFSET 0.000000 0.227535 0.000000 
			}
		}
		JOINT RightShoulder
		{
			OFFSET 0.019635 0.377685 0.194865 
			CHANNELS 3 Zrotation Xrotation Yrotation
			JOINT RightElbow
			{
				OFFSET 0.000000 -0.243375 0.000000 
				CHANNELS 2 Zrotation Yrotation
				JOINT RightWrist
				{
					OFFSET 0.000000 -0.264825 0.000000 
					CHANNELS 2 Zrotation Xrotation
					End Site
					{
						OFFSET 0.006600 -0.176220 0.000990 
					}
				}
			}
		}
		JOINT LeftShoulder
		{
			OFFSET 0.019635 0.377685 -0.194865 
			CHANNELS 3 Zrotation Xrotation Yrotation
			JOINT LeftElbow
			{
				OFFSET 0.000000 -0.243375 0.000000 
				CHANNELS 2 Zrotation Yrotation
				JOINT LeftWrist
				{
					OFFSET 0.000000 -0.264825 0.000000 
					CHANNELS 2 Zrotation Xrotation
					End Site
					{
						OFFSET 0.006600 -0.176220 -0.000990 
					}
				}
			}
		}
	}
	JOINT RightHip
	{
		OFFSET 0.052140 -0.069960 0.075570 
		CHANNELS 3 Zrotation Xrotation Yrotation
		JOINT RightKnee
		{
			OFFSET 0.000000 -0.402270 0.000000 
			CHANNELS 1 Zrotation
			JOINT RightAnkle
			{
				OFFSET 0.000000 -0.404085 0.000000 
				CHANNELS 3 Zrotation Xrotation Yrotation
				End Site
				{
					OFFSET 0.204105 -0.089430 0.008415 
				}
			}
		}
	}
	JOINT LeftHip
	{
		OFFSET 0.052140 -0.069960 -0.075570 
		CHANNELS 3 Zrotation Xrotation Yrotation
		JOINT LeftKnee
		{
			OFFSET 0.000000 -0.402270 0.000000 
			CHANNELS 1 Zrotation
			JOINT LeftAnkle
			{
				OFFSET 0.000000 -0.404085 0.000000 
				CHANNELS 3 Zrotation Xrotation Yrotation
				End Site
				{
					OFFSET 0.204105 -0.089430 -0.008415 
				}
			}
		}
	}
}
MOTION
Frames: 33
Frame Time: 0.02
0.00035 -6e-05 -0.00012 -180.6637 -34.04146 -3.26066 42.88908 2.94946 -3.38991 -15.80954 -1.42134 -0.52427 71.28426 -100.74016 64.16769 5.8799 102.06709 12.51228 0.92585 53.09018 104.12202 -64.17388 7.71213 -92.98855 10.51465 0.42497 40.10909 -2.30807 -3.9022 -22.6918 -6.93178 -3.58428 -2.5 43.78365 8.79585 1.79456 -28.02576 -6.80597 3.60003 2.52388
0.00029 -6e-05 -0.00014 -180.65053 -33.85892 -3.25028 42.70532 2.94705 -3.41825 -15.8291 -1.42102 -0.52445 71.52328 -100.73252 64.16804 5.85524 102.08558 12.5061 0.96147 53.09293 104.18074 -64.17333 7.69888 -93.00453 10.51569 0.42563 39.88338 -2.33025 -4.01367 -22.65904 -6.9264 -3.56693 -2.49203 43.56146 8.78716 1.77309 -27.99859 -6.80476 3.59924 2.52399
0.00022 -6e-05 -0.00016 -180.63749 -33.67719 -3.23994 42.52237 2.94468 -3.44645 -15.8486 -1.42071 -0.52463 71.76193 -100.72489 64.16839 5.8306 102.10403 12.49992 0.99704 53.09553 104.23932 -64.17278 7.68568 -93.02051 10.51669 0.42631 39.65866 -2.35236 -4.12474 -22.62642 -6.92104 -3.54963 -2.48409 43.34021 8.77848 1.75162 -27.97153 -6.80355 3.59847 2.52411
0.00015 -5e-05 -0.00019 -180.62438 -33.49527 -3.22959 42.33923 2.94228 -3.47469 -15.86811 -1.4204 -0.52481 72.00027 -100.71727 64.16873 5.80601 102.12247 12.49375 1.03256 53.09825 104.29786 -64.17223 7.67247 -93.03645 10.51772 0.42697 39.43371 -2.37447 -4.23582 -22.59376 -6.91567 -3.53234 -2.47615 43.11877 8.76982 1.73019 -27.94444 -6.80234 3.59769 2.52422
9e-05 -5e-05 -0.00021 -180.6111 -33.31242 -3.2192 42.15515 2.93985 -3.50309 -15.88768 -1.42008 -0.52499 72.23884 -100.70963 64.16909 5.78141 102.14094 12.48759 1.0681 53.10116 104.35651 -64.17168 7.6592 -93.05237 10.51881 0.42759 39.20761 -2.39667 -4.34743 -22.56094 -6.91029 -3.51499 -2.46817 42.89623 8.76116 1.7088 -27.91724 -6.80112 3.59688 2.52432
2e-05 -5e-05 -0.00023 -180.59854 -33.13303 -3.20898 41.97455 2.93758 -3.53088 -15.90702 -1.41976 -0.52517 72.47767 -100.70201 64.16943 5.7567 102.15934 12.48137 1.10373 53.10313 104.41492 -64.17113 7.64616 -93.06845 10.51961 0.42842 38.98576 -2.4186 -4.45741 -22.52875 -6.90496 -3.4978 -2.46028 42.67766 8.75244 1.68716 -27.89047 -6.79994 3.5962 2.52449
-5e-05 -5e-05 -0.00026 -180.58459 -32.947 -3.19843 41.78728 2.93499 -3.55985 -15.92681 -1.41946 -0.52535 72.71569 -100.69439 64.16979 5.73223 102.17785 12.47528 1.13914 53.10699 104.47377 -64.17058 7.63266 -93.08421 10.52099 0.42882 38.75579 -2.44099 -4.57028 -22.49534 -6.89954 -3.48034 -2.45225 42.45153 8.74386 1.66602 -27.86286 -6.79867 3.59527 2.52453
-0.00011 -4e-05 -0.00028 -180.57185 -32.76684 -3.18817 41.60591 2.93268 -3.58777 -15.94618 -1.41913 -0.52553 72.9545 -100.68674 64.17013 5.70755 102.1963 12.46907 1.17475 53.10911 104.53221 -64.17003 7.61959 -93.10024 10.52184 0.4296 38.53296 -2.46305 -4.68095 -22.46301 -6.89419 -3.46307 -2.44432 42.23206 8.73515 1.64447 -27.836 -6.79749 3.59456 2.52467
-0.00018 -4e-05 -0.00031 -180.56087 -32.59484 -3.1783 41.43271 2.93078 -3.61423 -15.96507 -1.41881 -0.52572 73.19425 -100.67914 64.17046 5.68256 102.21454 12.4627 1.21063 53.10907 104.5902 -64.16949 7.60705 -93.1167 10.52203 0.43093 38.32017 -2.48436 -4.78711 -22.43219 -6.88897 -3.44623 -2.43663 42.02191 8.72628 1.62221 -27.81018 -6.79642 3.59415 2.52497
-0.00024 -4e-05 -0.00033 -180.54061 -32.37885 -3.1663 41.2154 2.92672 -3.64855 -15.9868 -1.41859 -0.52589 73.42852 -100.67154 64.17088 5.65918 102.23357 12.45723 1.24503 53.12134 104.65093 -64.16889 7.59146 -93.13098 10.52599 0.42935 38.05357 -2.50894 -4.91377 -22.39324 -6.88315 -3.42754 -2.42791 41.76166 8.71829 1.60339 -27.77874 -6.79472 3.59208 2.52446
-0.00032 -4e-05 -0.00035 -180.53941 -32.25374 -3.15871 41.08927 2.92712 -3.66667 -16.00252 -1.41806 -0.52609 73.67433 -100.66373 64.17112 5.63252 102.25117 12.44985 1.28249 53.10775 104.70576 -64.16843 7.58231 -93.14969 10.522 0.43377 37.89798 -2.5273 -5.00067 -22.37107 -6.8785 -3.41236 -2.42113 41.60487 8.70849 1.5777 -27.75891 -6.79432 3.59347 2.52562
-0.00043 -4e-05 -0.00033 -180.59532 -32.39682 -3.16416 41.23163 2.94065 -3.63674 -16.00178 -1.41732 -0.52638 73.95263 -100.65708 64.17085 5.59594 102.26302 12.43732 1.32913 53.02175 104.74511 -64.16833 7.59079 -93.18186 10.49588 0.45588 38.07113 -2.52248 -4.94719 -22.39872 -6.87773 -3.41027 -2.42164 41.75364 8.69318 1.52999 -27.77334 -6.79778 3.605 2.53182
-0.00056 -4e-05 -0.00029 -180.66954 -32.62793 -3.17388 41.46242 2.95851 -3.59114 -15.99498 -1.41613 -0.5267 74.24245 -100.6499 64.17041 5.55626 102.27376 12.42283 1.37868 52.91022 104.77835 -64.16837 7.60573 -93.21823 10.4618 0.48378 38.35163 -2.51234 -4.85853 -22.44258 -6.87803 -3.41118 -2.42382 42.00259 8.67615 1.47605 -27.79901 -6.80247 3.61987 2.53962
-0.00069 -4e-05 -0.00025 -180.73217 -32.80612 -3.18101 41.64047 2.97379 -3.55513 -15.99095 -1.41471 -0.52701 74.52637 -100.6418 64.17006 5.51858 102.2862 12.40924 1.42641 52.8111 104.81398 -64.16836 7.6177 -93.25179 10.43164 0.50824 38.5668 -2.50888 -4.80778 -22.47651 -6.87737 -3.40829 -2.42386 42.19118 8.66021 1.42691 -27.81793 -6.80639 3.63282 2.54643
-0.00081 -5e-05 -0.00023 -180.80837 -33.03787 -3.19082 41.87061 2.99161 -3.50894 -15.98694 -1.41514 -0.52733 74.8128 -100.63856 64.16966 5.47829 102.29365 12.39579 1.4763 52.70779 104.85146 -64.1683 7.62977 -93.28912 10.40036 0.53616 38.85059 -2.48828 -4.66879 -22.52109 -6.87861 -3.41517 -2.42941 42.44133 8.64289 1.36905 -27.84367 -6.81124 3.64756 2.55439
-0.00095 -5e-05 -0.00018 -180.86095 -33.18033 -3.19614 42.01455 3.00522 -3.47992 -15.98135 -1.41161 -0.52764 75.09714 -100.62514 64.16934 5.44281 102.31118 12.38135 1.52233 52.60807 104.88337 -64.16836 7.64322 -93.31962 10.36932 0.55819 39.01874 -2.50106 -4.69975 -22.54761 -6.87626 -3.40309 -2.42427 42.5886 8.62816 1.32838 -27.85806 -6.81442 3.65928 2.5603
-0.00113 -4e-05 -0.0001 -180.84108 -33.04267 -3.18741 41.88712 3.00553 -3.50477 -15.97372 -1.39726 -0.5279 75.36941 -100.58323 64.16928 5.42067 102.35719 12.36673 1.55734 52.51742 104.90363 -64.16874 7.65855 -93.33018 10.3423 0.56295 38.8253 -2.61661 -5.25664 -22.51789 -6.8627 -3.33199 -2.38594 42.41332 8.61982 1.33209 -27.83672 -6.81285 3.66257 2.56037
-0.00133 -4e-05 -0 -180.79732 -32.8145 -3.17413 41.67219 3.00155 -3.54693 -15.96456 -1.37892 -0.52816 75.63986 -100.53121 64.16931 5.4037 102.41328 12.35075 1.58824 52.433 104.91808 -64.16922 7.67523 -93.33375 10.31539 0.56146 38.51491 -2.76432 -5.97727 -22.46992 -6.84567 -3.24276 -2.33737 42.13377 8.61434 1.35405 -27.80391 -6.80952 3.66258 2.55827
-0.00153 -3e-05 9e-05 -180.76625 -32.63546 -3.16335 41.50478 2.99993 -3.57945 -15.95553 -1.36239 -0.52842 75.91335 -100.4841 64.16929 5.38468 102.46456 12.33412 1.62086 52.34991 104.9337 -64.16963 7.69137 -93.3406 10.28764 0.56259 38.26831 -2.89111 -6.59085 -22.43185 -6.83092 -3.1658 -2.29568 41.91083 8.60836 1.3708 -27.77743 -6.80687 3.6636 2.557
-0.00173 -2e-05 0.00018 -180.72801 -32.42512 -3.15091 41.30709 2.99676 -3.61895 -15.94864 -1.34586 -0.52868 76.17771 -100.43552 64.16928 5.36386 102.51688 12.32303 1.65448 52.24676 104.95528 -64.17014 7.70693 -93.34719 10.26348 0.56498 37.97984 -3.04393 -7.33911 -22.38746 -6.81331 -3.07216 -2.24479 41.65175 8.59905 1.37476 -27.74655 -6.80474 3.66672 2.55642
-0.00192 -2e-05 0.00028 -180.69886 -32.2581 -3.1408 41.1513 2.99572 -3.64819 -15.93705 -1.32837 -0.52893 76.46075 -100.38775 64.16928 5.34861 102.56927 12.29977 1.68469 52.18919 104.96319 -64.17046 7.72454 -93.35257 10.23131 0.56301 37.75026 -3.15074 -7.84857 -22.35182 -6.80076 -3.00862 -2.21043 41.44278 8.59724 1.4092 -27.72207 -6.80113 3.66473 2.5539
-0.00209 -2e-05 0.00038 -180.69983 -32.22569 -3.13806 41.1255 3.00171 -3.64534 -15.91256 -1.30935 -0.52914 76.79364 -100.34351 64.16928 5.3432 102.62056 12.24624 1.70919 52.23935 104.93446 -64.17016 7.74242 -93.35658 10.18279 0.55221 37.7036 -3.1184 -7.63802 -22.34353 -6.80339 -3.03519 -2.22571 41.38915 8.6168 1.52834 -27.71711 -6.79352 3.64861 2.54624
-0.00226 -3e-05 0.0005 -180.71079 -32.24069 -3.13782 41.14556 3.00993 -3.6316 -15.8835 -1.28947 -0.52933 77.14567 -100.30066 64.16929 5.34427 102.67102 12.18004 1.72993 52.33853 104.8923 -64.16965 7.76328 -93.35956 10.12528 0.53691 37.72096 -3.03944 -7.18539 -22.34481 -6.81115 -3.09218 -2.25768 41.39037 8.64357 1.67654 -27.71906 -6.78453 3.6276 2.53675
-0.00243 -3e-05 0.00061 -180.71766 -32.23854 -3.13651 41.14913 3.01705 -3.62257 -15.85672 -1.26986 -0.52954 77.49039 -100.25792 64.16929 5.3449 102.72151 12.11755 1.75058 52.4261 104.85651 -64.16927 7.78599 -93.36282 10.06799 0.52255 37.71423 -2.98467 -6.85735 -22.34253 -6.8163 -3.13351 -2.281 41.37187 8.6662 1.80834 -27.71845 -6.77639 3.60935 2.52828
-0.0026 -3e-05 0.00072 -180.72197 -32.21567 -3.13478 41.13223 3.02446 -3.61499 -15.82893 -1.25061 -0.52973 77.82948 -100.21164 64.16929 5.33417 102.77518 12.06327 1.77855 52.46827 104.81929 -64.16877 7.79497 -93.36659 10.02659 0.51262 37.68346 -2.91846 -6.4739 -22.33646 -6.82249 -3.1819 -2.30847 41.32885 8.69261 1.95465 -27.71516 -6.76726 3.58872 2.51889
-0.00276 -4e-05 0.00083 -180.73411 -32.24722 -3.13457 41.16884 3.03178 -3.60178 -15.8023 -1.23046 -0.52995 78.18449 -100.17329 64.1693 5.3498 102.82019 11.9894 1.79061 52.6173 104.78204 -64.16845 7.83355 -93.3692 9.95052 0.49251 37.71811 -2.86443 -6.14571 -22.34059 -6.82778 -3.22311 -2.33142 41.34998 8.71277 2.07691 -27.71907 -6.75988 3.57195 2.51105
-0.0029 -4e-05 0.00094 -180.76711 -32.42767 -3.13808 41.35226 3.03893 -3.574 -15.77896 -1.20791 -0.53025 78.58185 -100.15589 64.16933 5.42627 102.85678 11.86006 1.75783 53.04348 104.74715 -64.16872 7.95074 -93.36886 9.776 0.44513 37.9301 -2.85686 -6.03308 -22.37242 -6.8293 -3.23676 -2.33752 41.54655 8.71453 2.1298 -27.7425 -6.75764 3.56687 2.50765
-0.00304 -4e-05 0.00104 -180.80747 -32.65984 -3.14302 41.58652 3.04581 -3.54114 -15.75717 -1.18451 -0.53058 78.9939 -100.1466 64.16937 5.53106 102.88228 11.71231 1.70939 53.57679 104.71292 -64.16918 8.09822 -93.36765 9.56783 0.38779 38.20405 -2.86274 -5.98289 -22.41395 -6.82974 -3.24228 -2.33861 41.80417 8.70965 2.15667 -27.77273 -6.7572 3.5659 2.50593
-0.00318 -3e-05 0.00114 -180.84346 -32.862 -3.14722 41.79112 3.05245 -3.5117 -15.73534 -1.16158 -0.53089 79.39736 -100.13405 64.16942 5.62951 102.90213 11.57584 1.66949 54.06468 104.67894 -64.16954 8.23317 -93.36659 9.37827 0.33517 38.44201 -2.86138 -5.9008 -22.4499 -6.83069 -3.25179 -2.34224 42.0266 8.70739 2.19252 -27.79904 -6.75594 3.56319 2.50365
-0.00331 -3e-05 0.00126 -180.88405 -33.09301 -3.15188 42.02469 3.06076 -3.47732 -15.71043 -1.13828 -0.53123 79.81 -100.11974 64.16944 5.70016 102.965 11.42641 1.62398 54.53968 104.64202 -64.16995 8.3623 -93.36561 9.17432 0.28138 38.71493 -2.86316 -5.82521 -22.49109 -6.83174 -3.26109 -2.34536 42.28209 8.70697 2.24109 -27.8291 -6.75465 3.55975 2.50048
-0.00345 -3e-05 0.00135 -180.91676 -33.27587 -3.15589 42.20972 3.06543 -3.452 -15.69251 -1.11552 -0.53152 80.2062 -100.11103 64.1695 5.83592 102.93825 11.30004 1.58579 55.06733 104.61173 -64.17029 8.51159 -93.36541 8.99256 0.22799 38.92926 -2.86221 -5.75411 -22.5236 -6.83226 -3.26852 -2.34812 42.4828 8.70115 2.25701 -27.85288 -6.75387 3.55888 2.49956
-0.00359 -4e-05 0.00139 -180.92511 -33.31072 -3.15768 42.24549 3.06056 -3.45449 -15.6924 -1.09483 -0.53163 80.55875 -100.11551 64.16964 6.14039 102.64296 11.2398 1.57792 55.7067 104.59841 -64.1704 8.70217 -93.35815 8.88021 0.1758 38.96356 -2.8506 -5.68049 -22.52919 -6.83153 -3.27241 -2.35101 42.5147 8.68099 2.18557 -27.85751 -6.75406 3.56423 2.50466
-0.00372 -5e-05 0.00142 -180.92536 -33.29555 -3.15875 42.23095 3.05193 -3.46605 -15.69951 -1.07466 -0.53168 80.89352 -100.12536 64.1698 6.51054 102.26136 11.20393 1.5769 56.39736 104.59211 -64.17044 8.91368 -93.35361 8.79176 0.12474 38.93702 -2.83598 -5.61044 -22.52575 -6.83029 -3.27461 -2.35364 42.48961 8.65577 2.08266 -27.85558 -6.7547 3.57204 2.51192
